<svg width="80" height="74" viewBox="0 0 80 74" fill="none" xmlns="http://www.w3.org/2000/svg">
<path d="M0 3C0 1.34314 1.34315 0 3 0H77C78.6569 0 80 1.34315 80 3V71C80 72.6569 78.6569 74 77 74H3C1.34315 74 0 72.6569 0 71V3Z" fill="#C4C4C4"/>
<path d="M59.1038 17.0342C57.6105 16.7924 56.0983 16.668 54.583 16.6621C49.4129 16.6581 44.3507 18.0517 39.9996 20.6767C35.6375 18.0862 30.576 16.7268 25.4163 16.76C23.901 16.7659 22.3888 16.8903 20.8955 17.1321C20.4063 17.2114 19.9634 17.4522 19.6463 17.8113C19.3293 18.1703 19.1591 18.6239 19.1663 19.0905V42.5905C19.1619 42.8782 19.2249 43.1633 19.351 43.4256C19.4771 43.6878 19.6631 43.9207 19.8958 44.1077C20.1286 44.2946 20.4023 44.4311 20.6975 44.5073C20.9927 44.5836 21.3021 44.5977 21.6038 44.5488C24.5893 44.0629 27.648 44.1435 30.5998 44.7859C33.5516 45.4283 36.3368 46.6194 38.7913 48.2892L39.0413 48.4263H39.2705C39.5015 48.5168 39.7494 48.5634 39.9996 48.5634C40.2499 48.5634 40.4978 48.5168 40.7288 48.4263H40.958L41.208 48.2892C43.6454 46.5821 46.4226 45.3524 49.375 44.6729C52.3273 43.9933 55.3948 43.8779 58.3955 44.3334C58.6972 44.3823 59.0066 44.3682 59.3018 44.2919C59.597 44.2157 59.8707 44.0792 60.1035 43.8922C60.3362 43.7053 60.5222 43.4724 60.6483 43.2101C60.7744 42.9479 60.8374 42.6628 60.833 42.375V18.875C60.8113 18.4288 60.628 18.003 60.3135 17.6682C59.999 17.3334 59.5722 17.1097 59.1038 17.0342ZM37.9163 43.0605C34.0619 41.1544 29.7716 40.1596 25.4163 40.1621C24.7288 40.1621 24.0413 40.1621 23.333 40.1621V20.5788C24.0268 20.5412 24.7224 20.5412 25.4163 20.5788C29.8609 20.5742 34.2084 21.8002 37.9163 24.1038V43.0605ZM56.6663 40.2405C55.958 40.2405 55.2705 40.2405 54.583 40.2405C50.2277 40.2379 45.9374 41.2327 42.083 43.1388V24.1038C45.7909 21.8002 50.1384 20.5742 54.583 20.5788C55.2769 20.5412 55.9724 20.5412 56.6663 20.5788V40.2405ZM59.1038 48.3675C57.6105 48.1257 56.0983 48.0013 54.583 47.9955C49.4129 47.9915 44.3507 49.385 39.9996 52.01C35.6486 49.385 30.5864 47.9915 25.4163 47.9955C23.901 48.0013 22.3888 48.1257 20.8955 48.3675C20.6243 48.408 20.3643 48.4984 20.1304 48.6337C19.8965 48.7689 19.6934 48.9463 19.5327 49.1556C19.372 49.3649 19.2569 49.602 19.194 49.8532C19.1312 50.1045 19.1217 50.3649 19.1663 50.6196C19.2722 51.1282 19.5882 51.5765 20.045 51.8665C20.5019 52.1565 21.0624 52.2644 21.6038 52.1667C24.5893 51.6808 27.648 51.7614 30.5998 52.4038C33.5516 53.0462 36.3368 54.2374 38.7913 55.9071C39.1442 56.1433 39.5665 56.2702 39.9996 56.2702C40.4328 56.2702 40.8551 56.1433 41.208 55.9071C43.6625 54.2374 46.4477 53.0462 49.3995 52.4038C52.3513 51.7614 55.41 51.6808 58.3955 52.1667C58.9369 52.2644 59.4974 52.1565 59.9543 51.8665C60.4111 51.5765 60.7271 51.1282 60.833 50.6196C60.8776 50.3649 60.8681 50.1045 60.8053 49.8532C60.7424 49.602 60.6273 49.3649 60.4666 49.1556C60.3059 48.9463 60.1028 48.7689 59.8689 48.6337C59.635 48.4984 59.375 48.408 59.1038 48.3675V48.3675Z" fill="white"/>
</svg>
